<svg xmlns="http://www.w3.org/2000/svg" width="38" height="37" viewBox="0 0 38 37">
  <g id="noun_Female_2788855" transform="translate(-1.714 -1.15)">
    <g id="Group_35" data-name="Group 35" transform="translate(1.714 1.15)">
      <path id="Path_24" data-name="Path 24" d="M12.114,24.542l-.474,1.3h-.006v.029l.006.01c.064,1.028,2.561,1.855,5.648,1.855s5.59-.826,5.648-1.855l.012-.01v-.029h-.006l-.474-1.3c8.5-.62,9.678-4.094,9.678-4.094-2.133-2.667-2.792-8.769-2.792-8.769-.705-7.51-3.821-9.985-8.175-9.648-9.632-2.494-14.407.178-15.95,9.648,0,0-.659,6.1-2.8,8.769C2.43,20.448,3.609,23.922,12.114,24.542Z" transform="translate(1.709 -1.15)" fill="#7c7c7c"/>
      <path id="Path_25" data-name="Path 25" d="M29.123,6.994s-.838-1.2-1.555-.5L20.711,18.425,13.855,6.494c-.717-.7-1.549.5-1.549.5-7.279,2.052-10.591,4.9-10.591,4.9v6.756h38V11.89S36.4,9.046,29.123,6.994Z" transform="translate(-1.714 18.349)" fill="#7c7c7c"/>
    </g>
  </g>
</svg>
