<svg xmlns="http://www.w3.org/2000/svg" width="20" height="26" viewBox="0 0 20 26">
  <g id="healthcare-and-medical" transform="translate(-0.004 0)">
    <path id="Path_4" data-name="Path 4" d="M94.2,69.14h.333a.448.448,0,0,0,0-.867H94.2a.448.448,0,0,0,0,.867Zm0,0" transform="translate(-90.2 -64.807)" fill="#ece9e9"/>
    <path id="Path_5" data-name="Path 5" d="M136.868,69.14H141.2a.448.448,0,0,0,0-.867h-4.333a.448.448,0,0,0,0,.867Zm0,0" transform="translate(-131.198 -64.807)" fill="#ece9e9"/>
    <path id="Path_6" data-name="Path 6" d="M16.978,13.867h-.731a1.228,1.228,0,0,0-.448.087l-.033.012a1.5,1.5,0,0,0-.484.356,4.8,4.8,0,0,1,1.893-3.55.514.514,0,0,0,.111-.588.3.3,0,0,0-.449-.158A5.471,5.471,0,0,0,14.861,12.9c-.018-.075-.037-.148-.057-.217a3.768,3.768,0,0,0-.8-1.473V3.9a1.18,1.18,0,0,0-1-1.3H11.609a1.057,1.057,0,0,0-.939-.867H8.885A2.105,2.105,0,0,0,7,0,2.105,2.105,0,0,0,5.123,1.734H3.337A1.057,1.057,0,0,0,2.4,2.6H1A1.18,1.18,0,0,0,0,3.9V24.7A1.18,1.18,0,0,0,1,26H13a.8.8,0,0,0,.448-.141,3.2,3.2,0,0,0,.929.141h1.246C18.04,26,20,23.279,20,19.933V18.057c0-2.31-1.357-4.19-3.026-4.19ZM14.181,13a7.325,7.325,0,0,1,.186,1.044,1.082,1.082,0,0,0-.1-.058,1.205,1.205,0,0,0-.511-.116H13.03a2.229,2.229,0,0,0-.271.019c-.008,0-.014-.01-.023-.012-1.1-.287-1.088-1.96-1.046-2.559a4.182,4.182,0,0,1,.641-.046h.007A2.089,2.089,0,0,1,14.181,13ZM10.794,23.4H2V5.2H2.4a1.056,1.056,0,0,0,.939.867h7.333a1.057,1.057,0,0,0,.939-.867H12v5.206c-.861.04-.918.351-.949.53a4.4,4.4,0,0,0,.736,3.3A4.492,4.492,0,0,0,10,18.057v1.876a7.731,7.731,0,0,0,.79,3.467ZM13.337,3.9v6.781a2.206,2.206,0,0,0-.667-.237V5.2A.787.787,0,0,0,12,4.333h-.333V3.467H13a.393.393,0,0,1,.333.433Zm-10-1.3H5.371L5.4,2.591a.258.258,0,0,0,.061-.016.279.279,0,0,0,.061-.033.384.384,0,0,0,.131-.17.457.457,0,0,0,.026-.079c.005-.013.009-.026.013-.04A1.476,1.476,0,0,1,7,.867,1.475,1.475,0,0,1,8.309,2.253c0,.016.009.031.014.046a.6.6,0,0,0,.019.062.442.442,0,0,0,.041.078.4.4,0,0,0,.031.046.34.34,0,0,0,.065.057.219.219,0,0,0,.159.059h2.033A.393.393,0,0,1,11,3.034V4.767a.393.393,0,0,1-.333.433H3.337A.393.393,0,0,1,3,4.767V3.034A.393.393,0,0,1,3.337,2.6ZM1,25.133A.393.393,0,0,1,.671,24.7V3.9A.393.393,0,0,1,1,3.467H2.337v.867H2a.787.787,0,0,0-.667.867V23.4A.787.787,0,0,0,2,24.267h9.319a4.949,4.949,0,0,0,.814.867Zm18.333-5.2c0,2.867-1.665,5.2-3.71,5.2H14.381c-2.046,0-3.71-2.332-3.71-5.2V18.057c0-1.832,1.058-3.324,2.359-3.324h.735a.68.68,0,0,1,.28.065,1.351,1.351,0,0,1,.626,1.239v.429a.345.345,0,1,0,.667,0v-.431a1.354,1.354,0,0,1,.622-1.241l.016-.006a.721.721,0,0,1,.267-.057h.736c1.3,0,2.359,1.493,2.359,3.324Zm0,0" fill="#ece9e9"/>
    <path id="Path_7" data-name="Path 7" d="M291.365,307.215c-.05.021-1.228.555-1.228,2.578a.345.345,0,1,0,.667,0c0-1.375.737-1.739.775-1.757a.473.473,0,0,0,.209-.549C291.728,307.26,291.539,307.138,291.365,307.215Zm0,0" transform="translate(-278.799 -291.593)" fill="#ece9e9"/>
    <path id="Path_8" data-name="Path 8" d="M69.937,145.074h-1a.787.787,0,0,0-.667.867v1.3a.787.787,0,0,0,.667.867h1a.787.787,0,0,0,.667-.867v-1.3A.787.787,0,0,0,69.937,145.074Zm-1,2.167v-1.3h1v1.3Zm0,0" transform="translate(-65.599 -137.707)" fill="#ece9e9"/>
    <path id="Path_9" data-name="Path 9" d="M69.937,221.875h-1a.787.787,0,0,0-.667.867v1.3a.787.787,0,0,0,.667.867h1a.787.787,0,0,0,.667-.867v-1.3A.787.787,0,0,0,69.937,221.875Zm-1,2.167v-1.3h1v1.3Zm0,0" transform="translate(-65.599 -210.608)" fill="#ece9e9"/>
    <path id="Path_10" data-name="Path 10" d="M69.937,298.676h-1a.787.787,0,0,0-.667.867v1.3a.787.787,0,0,0,.667.867h1a.787.787,0,0,0,.667-.867v-1.3A.787.787,0,0,0,69.937,298.676Zm-1,2.167v-1.3h1v1.3Zm0,0" transform="translate(-65.599 -283.509)" fill="#ece9e9"/>
    <path id="Path_11" data-name="Path 11" d="M69.937,375.473h-1a.787.787,0,0,0-.667.867v1.3a.787.787,0,0,0,.667.867h1a.787.787,0,0,0,.667-.867v-1.3A.787.787,0,0,0,69.937,375.473Zm-1,2.167v-1.3h1v1.3Zm0,0" transform="translate(-65.599 -356.406)" fill="#ece9e9"/>
    <path id="Path_12" data-name="Path 12" d="M145.4,171.542h4.667a.448.448,0,0,0,0-.867H145.4a.448.448,0,0,0,0,.867Zm0,0" transform="translate(-139.399 -162.009)" fill="#ece9e9"/>
    <path id="Path_13" data-name="Path 13" d="M149.07,247.473H145.4a.448.448,0,0,0,0,.867h3.667a.448.448,0,0,0,0-.867Zm0,0" transform="translate(-139.4 -234.906)" fill="#ece9e9"/>
    <path id="Path_14" data-name="Path 14" d="M148.4,324.273h-3a.448.448,0,0,0,0,.867h3a.448.448,0,0,0,0-.867Zm0,0" transform="translate(-139.399 -307.806)" fill="#ece9e9"/>
    <path id="Path_15" data-name="Path 15" d="M148.4,401.074h-3a.448.448,0,0,0,0,.867h3a.448.448,0,0,0,0-.867Zm0,0" transform="translate(-139.399 -380.707)" fill="#ece9e9"/>
  </g>
</svg>
