<svg xmlns="http://www.w3.org/2000/svg" width="38" height="40" viewBox="0 0 38 40">
  <g id="noun_Male_2790497" transform="translate(-33.652 -31.366)">
    <g id="Group_37" data-name="Group 37" transform="translate(33.652 31.366)">
      <path id="Path_29" data-name="Path 29" d="M29.255,6.209s-1.356,4.232-8.6,4.375c-7.247-.143-8.6-4.375-8.6-4.375-7.139,2.345-10.4,5.608-10.4,5.608v7.738h38V11.817S36.389,8.554,29.255,6.209Z" transform="translate(-1.652 20.444)" fill="#7c7c7c"/>
      <path id="Path_30" data-name="Path 30" d="M5.68,8.4S5.623,9.439,5.6,10.523c-.011.682-.011,1.381.028,1.86,0,0-3.541,1.348.21,5.581l2.639,6.12a7.585,7.585,0,0,0,1.5,1.75L9.613,27H9.6v.028s.006.017.011.017c.062,1.172,2.508,2.119,5.545,2.119s5.488-.947,5.545-2.119l.011-.017-.011-.011A.054.054,0,0,1,20.707,27H20.7l-.284-.925c.062-.044.108-.083.108-.083a6.7,6.7,0,0,0,1.737-1.91l2.633-6.126c3.746-4.227.21-5.575.21-5.575.04-.479.04-1.178.028-1.86h-.017c-.034-1.783-.159-4.034-.159-4.034a3.521,3.521,0,0,0-.006-.693,4.132,4.132,0,0,0-1.135-2.339l.04.006c-.045-.044-.1-.077-.142-.121a4.171,4.171,0,0,0-3.479-.914c-1.254-1.018-4.478-1.035-4.659-1.035H15.56a24.124,24.124,0,0,0-8.887,1.3,9.852,9.852,0,0,1-3.626.462C2.008,3.027,4.471,8.1,5.68,8.4Z" transform="translate(3.701 -1.366)" fill="#7c7c7c"/>
    </g>
  </g>
</svg>
